HIERARCHY
ROOT hip
{
	OFFSET 0.000000 0.000000 0.000000
	CHANNELS 6 Xposition Yposition Zposition Zrotation Yrotation Xrotation 
	JOINT lhipjoint
	{
		OFFSET 0.000000 0.000000 0.000000
		CHANNELS 3 Zrotation Yrotation Xrotation
		JOINT lfemur
		{
			OFFSET 1.363060 -1.794630 0.839290
			CHANNELS 3 Zrotation Yrotation Xrotation
			JOINT ltibia
			{
				OFFSET 2.448110 -6.726130 0.000000
				CHANNELS 3 Zrotation Yrotation Xrotation
				JOINT lfoot
				{
					OFFSET 2.562200 -7.039590 0.000000
					CHANNELS 3 Zrotation Yrotation Xrotation
					JOINT ltoes
					{
						OFFSET 0.157640 -0.433110 2.322550
						CHANNELS 3 Zrotation Yrotation Xrotation
						End Site
						{
							OFFSET 0.000000 0.000000 0.000000
						}
					}
				}
			}
		}
	}
	JOINT rhipjoint
	{
		OFFSET 0.000000 0.000000 0.000000
		CHANNELS 3 Zrotation Yrotation Xrotation
		JOINT rfemur
		{
			OFFSET -1.305520 -1.794630 0.839290
			CHANNELS 3 Zrotation Yrotation Xrotation
			JOINT rtibia
			{
				OFFSET -2.542530 -6.985550 0.000000
				CHANNELS 3 Zrotation Yrotation Xrotation
				JOINT rfoot
				{
					OFFSET -2.568260 -7.056230 0.000000
					CHANNELS 3 Zrotation Yrotation Xrotation
					JOINT rtoes
					{
						OFFSET -0.164730 -0.452590 2.363150
						CHANNELS 3 Zrotation Yrotation Xrotation
						End Site
						{
							OFFSET 0.000000 0.000000 0.000000
						}
					}
				}
			}
		}
	}
	JOINT lowerback
	{
		OFFSET 0.000000 0.000000 0.000000
		CHANNELS 3 Zrotation Yrotation Xrotation
		JOINT upperback
		{
			OFFSET 0.028270 2.035590 -0.193380
			CHANNELS 3 Zrotation Yrotation Xrotation
			JOINT thorax
			{
				OFFSET 0.056720 2.048850 -0.042750
				CHANNELS 3 Zrotation Yrotation Xrotation
				JOINT lowerneck
				{
					OFFSET 0.000000 0.000000 0.000000
					CHANNELS 3 Zrotation Yrotation Xrotation
					JOINT upperneck
					{
						OFFSET -0.054170 1.746240 0.172020
						CHANNELS 3 Zrotation Yrotation Xrotation
						JOINT head
						{
							OFFSET 0.104070 1.761360 -0.123970
							CHANNELS 3 Zrotation Yrotation Xrotation
							End Site
							{
								OFFSET 0.000000 0.000000 0.000000
							}
						}
					}
				}
				JOINT lclavicle
				{
					OFFSET 0.000000 0.000000 0.000000
					CHANNELS 3 Zrotation Yrotation Xrotation
					JOINT lhumerus
					{
						OFFSET 3.362410 1.200890 -0.311210
						CHANNELS 3 Zrotation Yrotation Xrotation
						JOINT lradius
						{
							OFFSET 4.983000 -0.000000 -0.000000
							CHANNELS 3 Zrotation Yrotation Xrotation
							JOINT lwrist
							{
								OFFSET 3.483560 -0.000000 -0.000000
								CHANNELS 3 Zrotation Yrotation Xrotation
								JOINT lhand
								{
									OFFSET 0.000000 0.000000 0.000000
									CHANNELS 3 Zrotation Yrotation Xrotation
									JOINT lfingers
									{
										OFFSET 0.715260 -0.000000 -0.000000
										CHANNELS 3 Zrotation Yrotation Xrotation
										End Site
										{
											OFFSET 0.000000 0.000000 0.000000
										}
									}
								}
								JOINT lthumb
								{
									OFFSET 0.000000 0.000000 0.000000
									CHANNELS 3 Zrotation Yrotation Xrotation
									End Site
									{
										OFFSET 0.000000 0.000000 0.000000
									}
								}
							}
						}
					}
				}
				JOINT rclavicle
				{
					OFFSET 0.000000 0.000000 0.000000
					CHANNELS 3 Zrotation Yrotation Xrotation
					JOINT rhumerus
					{
						OFFSET -3.136600 1.374050 -0.404650
						CHANNELS 3 Zrotation Yrotation Xrotation
						JOINT rradius
						{
							OFFSET -5.241900 -0.000000 -0.000000
							CHANNELS 3 Zrotation Yrotation Xrotation
							JOINT rwrist
							{
								OFFSET -3.444170 -0.000000 -0.000000
								CHANNELS 3 Zrotation Yrotation Xrotation
								JOINT rhand
								{
									OFFSET 0.000000 0.000000 0.000000
									CHANNELS 3 Zrotation Yrotation Xrotation
									JOINT rfingers
									{
										OFFSET -0.622530 -0.000000 -0.000000
										CHANNELS 3 Zrotation Yrotation Xrotation
										End Site
										{
											OFFSET 0.000000 0.000000 0.000000
										}
									}
								}
								JOINT rthumb
								{
									OFFSET 0.000000 0.000000 0.000000
									CHANNELS 3 Zrotation Yrotation Xrotation
									End Site
									{
										OFFSET 0.000000 0.000000 0.000000
									}
								}
							}
						}
					}
				}
			}
		}
	}
}
MOTION
Frames: 9
Frame Time: 0.008333
2.960022 17.520604 8.653555 -175.116746 1.000692 173.585256 -2.055704 2.515253 1.662449 -8.396319 1.022250 -14.571892 4.156856 11.828321 37.100782 -0.064527 2.025302 -4.525086 0.429300 -4.204700 -11.653400 0.152769 -4.247180 1.968837 19.470313 -1.269354 11.081989 -3.831796 -9.342219 32.534182 4.275279 -19.383994 -8.424686 -1.504400 7.746900 -21.947900 4.970081 -0.721968 15.734937 1.102224 0.621982 -3.137698 0.195403 1.556172 1.956391 0.300689 -8.903046 -6.528900 -0.303782 -9.047642 -2.780107 2.858500 -3.121800 -1.698400 1.541000 3.164906 0.839181 -81.679742 0.141249 24.508510 26.839243 -47.908172 -9.993694 -0.188603 0.363554 137.716885 21.214700 14.530794 5.749000 -7.125000 0.000000 0.000000 -5.888200 45.889900 -0.129800 0.146544 1.586264 3.978939 81.506834 -10.835926 22.526628 -70.797054 61.920917 -31.176330 1.060514 -4.233180 90.491261 -1.055426 -15.247638 1.489700 7.125000 0.000000 0.000000 20.851700 -45.310400 -0.167100 
3.023568 17.507177 8.745594 -175.155930 1.217547 173.641877 -2.041013 2.505266 1.645122 -8.191146 0.994741 -15.104335 4.213250 11.913026 37.367020 -0.109223 2.226789 -4.361357 0.458100 -4.341700 -12.040000 0.132101 -4.254183 1.990623 19.495020 -1.202547 11.969277 -3.530325 -8.918320 31.088643 4.090263 -18.651892 -8.333888 -1.769200 8.367800 -23.836900 4.971333 -0.692649 15.818783 1.093635 0.654577 -3.155940 0.162395 1.567967 1.848342 0.136905 -8.838425 -6.532638 -0.285227 -8.969821 -2.754560 2.913100 -3.082700 -1.653900 1.471238 3.162379 0.838692 -81.676639 0.167357 25.159283 28.576814 -49.177512 -10.925097 -0.127938 0.365580 136.650438 21.328463 14.342577 5.707900 -7.125000 0.000000 0.000000 -5.683700 45.658800 -0.092700 0.154231 1.575040 3.951624 81.455459 -10.421218 23.177747 -72.041411 62.051625 -31.916297 1.012376 -4.273789 90.645412 -1.394280 -15.528961 1.619400 7.125000 0.000000 0.000000 20.609900 -45.577900 -0.307100 
3.086909 17.491496 8.840401 -175.175744 1.424912 173.690473 -2.026458 2.493999 1.626885 -7.964127 0.936154 -15.635719 4.272433 12.001105 37.643203 -0.158784 2.457191 -4.232159 0.493600 -4.504500 -12.500500 0.111939 -4.258968 2.008229 19.530771 -1.179583 12.729890 -3.249129 -8.504617 29.712501 3.891797 -17.880943 -8.352962 -1.914500 8.685800 -24.817200 4.987052 -0.668248 15.939665 1.087185 0.691709 -3.169661 0.128469 1.584478 1.758189 0.024393 -8.771639 -6.600491 -0.295063 -8.889971 -2.735122 2.935000 -3.043900 -1.600300 1.415365 3.162002 0.840914 -81.791161 0.156743 25.622457 30.342338 -50.415284 -11.902765 -0.067933 0.360472 135.961544 21.626844 14.192338 5.728600 -7.125000 0.000000 0.000000 -5.325100 45.484700 -0.063900 0.162225 1.561145 3.921464 81.426716 -9.943303 23.788057 -73.215246 62.150272 -32.610696 0.962033 -4.310574 90.835378 -1.742648 -15.758808 1.748600 7.125000 0.000000 0.000000 20.342700 -45.799600 -0.418900 
3.150558 17.474379 8.937155 -175.196508 1.624262 173.748547 -2.014434 2.482303 1.610833 -7.727888 0.885743 -16.194959 4.335711 12.093890 37.936495 -0.201355 2.655032 -4.111237 0.517900 -4.612400 -12.806300 0.090606 -4.261074 2.025053 19.589656 -1.151500 13.357512 -2.994284 -8.111158 28.434350 3.705617 -17.179315 -8.545678 -2.020500 8.908600 -25.509900 4.965245 -0.649436 16.099641 1.089737 0.722235 -3.191509 0.166783 1.590731 1.623073 -0.112756 -8.686703 -6.671648 -0.316545 -8.790290 -2.711580 2.950900 -2.998400 -1.538700 1.369169 3.147518 0.845837 -82.029311 0.193138 25.920177 32.143103 -51.624212 -12.928170 -0.005222 0.351200 135.503271 22.050748 14.131393 5.814900 -7.125000 0.000000 0.000000 -4.870900 45.414400 -0.049900 0.176968 1.551187 3.881446 81.327972 -9.485355 24.474231 -74.490004 62.206274 -33.380410 0.927410 -4.338793 90.960897 -1.963070 -15.930143 1.835600 7.125000 0.000000 0.000000 20.177400 -45.962300 -0.499500 
3.213899 17.455930 9.035652 -175.220732 1.824537 173.818400 -2.003202 2.469619 1.594385 -7.496070 0.810206 -16.764173 4.403297 12.189290 38.244214 -0.248386 2.876151 -4.010025 0.526000 -4.647900 -12.907000 0.072102 -4.261231 2.039642 19.656806 -1.145663 13.825137 -2.772286 -7.751532 27.290190 3.538999 -16.575790 -8.875038 -2.042300 8.953600 -25.650400 4.927763 -0.630866 16.283171 1.091456 0.751830 -3.214687 0.203351 1.595819 1.481082 -0.212924 -8.605977 -6.777117 -0.346859 -8.698075 -2.689324 2.949200 -2.957800 -1.469400 1.327266 3.130301 0.851714 -82.287480 0.247941 26.148722 33.985787 -52.805565 -14.006649 0.062487 0.337059 135.205044 22.584971 14.215586 5.986500 -7.125000 0.000000 0.000000 -4.341500 45.503800 -0.054100 0.193266 1.541052 3.836186 81.209547 -8.978417 25.224703 -75.781778 62.227908 -34.164295 0.900683 -4.364026 91.058996 -2.124993 -16.066275 1.902700 7.125000 0.000000 0.000000 20.055500 -46.092000 -0.563000 
3.276625 17.436867 9.135173 -175.247686 2.005564 173.891000 -1.993306 2.456113 1.577712 -7.263735 0.707815 -17.332449 4.473697 12.286918 38.563988 -0.279654 3.024829 -3.947881 0.516300 -4.605600 -12.787000 0.054863 -4.258230 2.049626 19.739836 -1.167737 14.121104 -2.586425 -7.436834 26.319769 3.367974 -16.008703 -9.466209 -1.963900 8.790500 -25.142200 4.851969 -0.610560 16.474935 1.097182 0.782187 -3.236145 0.276524 1.598373 1.338239 -0.290996 -8.524973 -6.866031 -0.370042 -8.597824 -2.697652 2.943900 -2.910800 -1.422800 1.289420 3.113058 0.862202 -82.564761 0.321623 26.347538 35.912615 -53.982750 -15.162259 0.135455 0.321260 135.029995 23.127065 14.407660 6.204700 -7.125000 0.000000 0.000000 -3.819800 45.704200 -0.066500 0.215248 1.533005 3.788535 81.077729 -8.478234 25.978732 -77.130094 62.207765 -34.995573 0.880835 -4.381319 91.137250 -2.240455 -16.137313 1.947900 7.125000 0.000000 0.000000 19.958700 -46.159600 -0.594700 
3.338532 17.417290 9.235105 -175.256370 2.187091 173.965433 -1.984840 2.442267 1.562712 -7.013508 0.634998 -17.903776 4.545568 12.387248 38.890354 -0.304800 3.143527 -3.867511 0.521400 -4.627700 -12.849800 0.038030 -4.253165 2.054341 19.858334 -1.239150 14.237120 -2.438642 -7.174285 25.540115 3.190026 -15.468953 -10.251250 -1.821400 8.483800 -24.193400 4.759254 -0.591215 16.670736 1.109465 0.813065 -3.256342 0.382127 1.599003 1.201915 -0.308666 -8.423786 -6.968588 -0.433116 -8.477318 -2.696946 2.896700 -2.860700 -1.376500 1.262004 3.092669 0.875903 -82.871907 0.405937 26.528081 37.873127 -55.124473 -16.362413 0.213505 0.306069 134.916603 23.672995 14.726438 6.480900 -7.125000 0.000000 0.000000 -3.309600 46.038200 -0.084900 0.246572 1.521438 3.736453 80.918612 -7.974264 26.790264 -78.469110 62.150407 -35.835657 0.868309 -4.397708 91.179113 -2.304776 -16.217810 1.979600 7.125000 0.000000 0.000000 19.914100 -46.235300 -0.631900 
3.399413 17.400584 9.334626 -175.253910 2.312905 174.135084 -1.977383 2.425302 1.542111 -6.788075 0.532042 -18.548066 4.606751 12.471764 39.163959 -0.340156 3.307505 -3.764138 0.547900 -4.742200 -13.174800 0.030413 -4.247547 2.053120 19.996238 -1.438619 14.093935 -2.318837 -6.944787 24.871190 3.070259 -15.134236 -10.880576 -1.755300 8.336600 -23.741200 4.665106 -0.581787 16.740428 1.122692 0.818961 -3.270471 0.476722 1.587898 1.153495 -0.261521 -8.327233 -7.135620 -0.490275 -8.356702 -2.714703 2.835200 -2.805900 -1.335700 1.237233 3.089600 0.891117 -83.127758 0.449052 26.729187 39.884863 -56.234747 -17.619446 0.295413 0.294346 134.844308 24.100291 15.171655 6.782800 -7.125000 0.000000 0.000000 -2.924400 46.494100 -0.107900 0.278779 1.497768 3.685997 80.759188 -7.400815 27.618436 -79.692856 62.078655 -36.607889 0.853253 -4.415149 91.179522 -2.404391 -16.312814 2.023600 7.125000 0.000000 0.000000 19.838800 -46.322700 -0.673800 
3.459679 17.383775 9.433020 -175.238783 2.441330 174.234209 -1.969999 2.409680 1.521035 -6.554492 0.494006 -19.117606 4.664867 12.556317 39.426538 -0.370911 3.452904 -3.670625 0.608100 -4.991300 -13.883700 0.022758 -4.240780 2.041396 20.173297 -1.728190 13.910147 -2.232634 -6.762894 24.361718 2.993032 -14.964804 -11.461016 -1.755500 8.337200 -23.743000 4.575953 -0.595759 16.843231 1.140547 0.815311 -3.261637 0.610564 1.578864 1.194505 -0.285510 -8.247750 -7.354347 -0.524483 -8.245964 -2.753520 2.805100 -2.745000 -1.293700 1.216489 3.105055 0.914717 -83.447156 0.416110 26.872119 41.898434 -57.288190 -18.897489 0.377734 0.287978 134.836906 24.424189 15.678436 7.088700 -7.125000 0.000000 0.000000 -2.641500 47.008500 -0.131000 0.310865 1.462156 3.640446 80.535907 -6.785342 28.467036 -80.800855 61.995014 -37.320415 0.831894 -4.433258 91.181048 -2.539844 -16.453249 2.083400 7.125000 0.000000 0.000000 19.746000 -46.451800 -0.735700 
